<svg width="103" height="18" viewBox="0 0 103 18" fill="none" xmlns="http://www.w3.org/2000/svg"><path opacity=".2" fill-rule="evenodd" clip-rule="evenodd" d="M97.7849.3328v7.452L87.7272.4784c-.1452-.104-.2473-.1456-.3925-.1456-.1641 0-.3913.104-.3913.4159v16.22h5.2151V9.7693l10.0595 7.0746c.123.0831.247.1248.371.1248.225 0 .411-.1248.411-.416V.3328h-5.2151Zm-79.1102 0c-.1442 0-.2474.0624-.3298.1456L9.5229 8.505.7009.4785C.5977.3952.5153.3328.371.3328.1855.3328 0 .4576 0 .7487v16.22h5.215v-6.0256l4.3079 3.9044 4.2874-3.884v6.0052h5.2149V.7487c0-.312-.1855-.4159-.3505-.4159Zm15.5769 8.297c0-2.2666-1.5458-3.8677-3.7927-3.8677-2.2466 0-3.7926 1.6011-3.7926 3.8677 0 2.2667 1.546 3.9095 3.7926 3.9095 2.2469 0 3.7927-1.6428 3.7927-3.9095Zm5.3386 0c0 5.0948-3.6484 8.6716-9.1313 8.6716-5.4623 0-9.1312-3.5768-9.1312-8.6716C21.3277 3.535 24.9966 0 30.4589 0c5.4829 0 9.1313 3.5351 9.1313 8.6298ZM47.087.3328h-5.1943v16.6359h12.5117v-4.8868H47.087V.3329Zm14.1683 0h-5.1945v16.6359h12.5123v-4.8868h-7.3178V.3329ZM75.5964 12.082h8.513v4.8868H70.3813V.3328h13.6259v4.4708h-8.4108v1.8716h7.4831v3.4936h-7.4831v1.9131Z" fill="#1E1E1E"/></svg>