<svg width="55" height="67" viewBox="0 0 55 67" fill="none" xmlns="http://www.w3.org/2000/svg"><path d="M25.6481 65.1568C25.6481 66.175 26.477 67 27.5 67c1.023 0 1.8519-.825 1.8519-1.8432 0-4.9803 5.8518-10.3919 10.8903-13.5312C49.3474 46.8782 55 37.5915 55 27.3714 55 12.2793 42.6637 0 27.5 0S0 12.2786 0 27.3714c0 10.2209 5.6526 19.5068 14.7578 24.2542 5.0385 3.1393 10.8903 8.5509 10.8903 13.5312Z" fill="#4E76C6"/><path fill-rule="evenodd" clip-rule="evenodd" d="M29.2996 28.1216c.2506.1909.5936.2144.9693.227.4733.0178 1.0075.0777 1.5485.1601.4907.0743 1.0672.2321 1.5487.4337.8962.3892 1.6834.8672 2.5383 1.7907.0528.0572.1346.0796.2057.0518.9259-.3599 1.4611-1.0597 1.6907-1.6777.2404-.6441.2701-1.3412.0513-2.0274-.1983-.6188-.5691-1.1404-1.0887-1.4862.2238-.5966.2288-1.2449.038-1.866-.2114-.6888-.631-1.2343-1.1902-1.6093-.5592-.375-1.4373-.6195-2.435-.3148-.9656.2941-1.9948 1.0445-2.6437 1.7814-.6932.7887-1.1528 1.6744-1.4782 2.5282-.1236.3393-.2452.8024-.203 1.174.0462.3455.1834.636.4483.8345ZM28.6 30.3062c-.0976.3062-.0131.6517.0913 1.0262.1299.4723.2401 1.0175.3317 1.5766.0835.5068.1168 1.1239.0809 1.6613-.08 1.0043-.2752 1.9283-.858 3.0569-.0361.0699-.0314.157.0162.219.6161.802 1.4232 1.1133 2.0612 1.1491.6648.0374 1.3132-.1482 1.8749-.5765.5063-.3861.8706-.9135 1.0267-1.533.6162.0371 1.2125-.1587 1.723-.5388.5666-.4215.9375-1.0038 1.1085-1.671.1709-.6672.1239-1.6094-.4642-2.4994-.5675-.861-1.5735-1.6438-2.4507-2.0564-.9375-.4399-1.8915-.6194-2.7752-.6766-.3494-.017-.8117.0062-1.1395.1626-.3026.1523-.5266.3774-.6268.7Zm-2.2198-.0149c-.3108-.0016-.6017.1885-.9129.4072-.3929.2741-.859.5513-1.3434.8144-.439.239-.9947.4625-1.4987.5931-.9458.2315-1.8536.3244-3.0687.0985a.1906.1906 0 0 0-.1958.0836c-.5452.8555-.5814 1.7476-.4171 2.3879.1713.6672.5419 1.2495 1.1083 1.671.5106.3801 1.1066.5759 1.7232.5388.1564.6195.5201 1.1469 1.0265 1.533.5617.4283 1.2103.6139 1.8751.5765.6648-.0373 1.5144-.3751 2.1489-1.2299.6142-.8262 1.0212-2.0604 1.1288-3.0522.1137-1.0607-.0165-2.0573-.2373-2.9464-.0923-.3499-.2563-.7986-.5012-1.0736-.2331-.2513-.5088-.4026-.8357-.4019Zm1.132-3.5347c.2524-.1881.38-.5192.5078-.8858.1625-.4613.3825-.9695.6252-1.4777.2197-.4609.5426-.9805.8763-1.3933.634-.7638 1.3155-1.3923 2.4264-1.9502a.2012.2012 0 0 0 .1115-.187c-.0437-1.0244-.5203-1.7682-1.0159-2.186-.517-.4355-1.1469-.6806-1.844-.6766-.6286.0039-1.2218.2088-1.6995.6147-.4778-.4059-1.0709-.6108-1.6995-.6147-.6971-.004-1.3271.2411-1.8437.6766-.5167.4355-1.0125 1.2265-1.0413 2.3048-.0286 1.0428.3416 2.2894.8169 3.1573.5091.9274 1.1794 1.6544 1.8619 2.2391.273.2268.6601.4899 1.014.563.3311.0613.6399.0157.9039-.1842Zm-1.8043 1.341c-.0944-.3072-.3587-.5353-.6555-.7745-.3728-.3029-.771-.6769-1.162-1.0734-.3549-.3591-.7315-.838-1.0071-1.2947-.5046-.8613-.8704-1.7277-1.0386-2.996-.0104-.0786-.0635-.1462-.1372-.1674-.9531-.2732-1.7825-.0332-2.3189.3267-.559.375-.9785.9205-1.1901 1.6093-.1909.621-.1862 1.2694.0383 1.866-.5198.3458-.891.8674-1.0887 1.4862-.2192.6862-.1891 1.3833.0506 2.0274.2397.6441.8121 1.3775 1.7921 1.7392.9476.3504 2.2052.3705 3.1481.17 1.0079-.2155 1.8817-.652 2.629-1.1443.2924-.1993.6532-.4998.8297-.8262.1585-.3076.2121-.6263.1103-.9483Z" fill="#fff"/></svg>