<svg width="827" height="1087" viewBox="0 0 827 1087" fill="none" xmlns="http://www.w3.org/2000/svg"><g opacity=".1" fill="#fff"><mask id="a"><path fill-rule="evenodd" clip-rule="evenodd" d="M795.72 501.695c20.754-29.085 31.944-64.533 30.817-101.222-.683-21.507-2.959-42.672-6.714-63.041-1.707-9.104-12.859-12.518-19.345-6.032-13.542 13.769-26.4 27.311-38.576 40.852.052-.078.098-.15.141-.218.051-.082.097-.159.143-.237.086-.142.171-.284.285-.455 35.39-58.945 31.179-133.821-10.356-188.67-7.169-9.445-14.679-18.435-22.644-27.197-5.69-6.145-15.818-4.438-19.004 3.3-7.51 18.321-14.68 36.528-21.507 54.621.057-.17.085-.313.114-.455.028-.142.057-.284.114-.455 12.176-53.597-11.721-109.015-58.718-137.4631-13.655-8.1932-27.766-15.8174-42.218-22.7588-6.827-3.3-14.907.9104-16.158 8.4208-3.869 23.5553-7.283 46.7691-10.128 69.4141h-.114v-.91c-.114-57.1247-40.283-106.6251-96.156-118.6873-23.441-5.0069-46.997-8.5345-70.552-10.469-7.624-.569-13.655 6.3724-12.062 13.8828l87.507 391.1095c3.983 22.19 6.373 46.883 6.373 74.99 0 57.694-46.769 104.463-104.463 104.463-57.693 0-104.463-46.769-104.463-104.463 0-69.964 22.623-131.513 44.011-189.7 19.172-52.161 37.352-101.622 37.352-152.023v-2.048c0-3.186-.227-6.372-.455-9.445v-.228c-4.779-44.4929-42.445-79.0863-88.19-79.0863-43.356 0-79.315 31.0658-87.167 72.0313-16.386 10.014-35.617 15.818-56.214 15.818-20.0273 0-38.6896-5.463-54.7345-15.021-4.3242-2.504-9.1035 2.39-6.4862 6.6 20.3691 33 56.8967 55.076 98.6587 55.076 9.673 0 19.004-1.138 27.994-3.414 8.3 15.294 21.032 27.914 36.507 36.104-11.218 18.978-22.353 38.006-33.438 57.084-16.613 28.79-33 57.807-49.158 86.824-16.159 29.018-32.09 58.263-47.7939 87.622-2.2465 4.206-4.5007 8.412-6.756 12.62-12.938 24.141-25.9154 48.356-37.7375 73.066-12.9929 27.208-24.4687 55.282-31.4658 84.752C5.0573 645.819.5758 676.408.0518 708.058-3.362 915.846 162.322 1085.63 370.109 1086.99c206.991 1.37 375.065-166.024 375.065-372.673 0-35.39-2.617-70.439-14.224-102.187-3.36-9.399-9.819-21.644-16.592-33.294 17.665-13.102 34.127-28.122 49.905-43.874a166.6953 166.6953 0 0 0 30.066-31.345c.575-.617 1.149-1.233 1.723-1.85l-.332-.072Z"/></mask><path d="m826.537 400.473.999-.03v-.001l-.999.031ZM795.72 501.695l-.814-.58-.882 1.236 1.485.322.211-.978Zm24.103-164.263.983-.182v-.003l-.983.185Zm-19.345-6.032-.707-.707-.006.006.713.701Zm-38.576 40.852-.832-.554 1.575 1.223-.743-.669Zm.141-.218.849.528-.849-.528Zm.143-.237-.857-.514.857.514Zm.285-.455.832.555.013-.02.012-.02-.857-.515Zm-10.356-188.67.798-.604-.001-.001-.797.605Zm-22.644-27.197.739-.673-.006-.006-.733.679Zm-19.004 3.3-.925-.381v.002l.925.379Zm-21.507 54.621-.949-.316 1.884.669-.935-.353Zm.228-.91.948.316.016-.047.011-.048-.975-.221ZM630.47 75.0229l.518-.8555-.004-.002-.514.8575Zm-42.218-22.7588-.435.9003.002.0011.433-.9014Zm-16.158 8.4208-.987-.1644v.0023l.987.1621Zm-10.128 69.4141v1h.882l.11-.875-.992-.125Zm-.114 0h-1v1h1v-1Zm0-.91h1v-.002l-1 .002ZM465.696 10.5017l.211-.9774-.002-.0005-.209.9779ZM395.144.0327l.082-.9967-.008-.0005-.074.9972Zm-12.062 13.8828-.978.2076.002.0108.976-.2184Zm87.507 391.1095.985-.177-.004-.021-.005-.02-.976.218Zm-158.542-114.71-.939-.345.939.345Zm36.897-163.516h-1v.037l.003.037.997-.074Zm0-.228h1v-.053l-.006-.053-.994.106Zm-175.357-7.055.522.854.377-.231.084-.434-.983-.189Zm-110.9485.797.5118-.859-.0108-.007-.501.866Zm-6.4862 6.6.8509-.525-.0017-.003-.8492.528Zm126.6527 51.662.879-.477-.371-.683-.754.191.246.969Zm36.507 36.104.86.509.534-.902-.927-.491-.467.884Zm-33.438 57.084-.864-.503-.002.003.866.5Zm-49.158 86.824-.874-.486.874.486Zm-47.7939 87.622-.8817-.472-.0003.001.882.471Zm-6.756 12.62.8814.472-.8814-.472Zm-37.7375 73.066-.902-.431-.0004.001.9024.43Zm-31.4658 84.752.9652.262.0041-.015.0036-.016-.9729-.231ZM.0518 708.058l-.9998-.016.9998.016ZM370.109 1086.99l.007-1-.007 1ZM730.95 612.13l-.942.337.003.006.939-.343Zm-16.592-33.294-.596-.803-.718.533.449.773.865-.503Zm49.905-43.874-.626-.78-.042.034-.039.038.707.708Zm30.066-31.345-.731-.682-.04.042-.035.047.806.593Zm1.723-1.85.732.682 1.197-1.287-1.717-.372-.212.977Zm29.485-101.263c1.121 36.465-10.002 71.699-30.631 100.611l1.628 1.161c20.878-29.259 32.137-64.921 31.002-101.833l-1.999.061Zm-6.698-62.891c3.746 20.319 6.017 41.434 6.698 62.892l1.999-.063c-.684-21.557-2.965-42.772-6.73-63.192l-1.967.363Zm-17.654-5.505c5.917-5.917 16.096-2.806 17.655 5.508l1.966-.369c-1.855-9.893-13.98-13.609-21.035-6.554l1.414 1.415Zm-38.54 40.813c12.164-13.528 25.012-27.058 38.546-40.819l-1.426-1.403c-13.549 13.777-26.419 27.33-38.607 40.885l1.487 1.337Zm-1.451-1.416c-.038.061-.079.125-.124.193l1.664 1.109c.058-.088.11-.169.158-.245l-1.698-1.057Zm.135-.222c-.047.078-.089.149-.135.222l1.698 1.057c.056-.09.106-.174.152-.251l-1.715-1.028Zm.31-.496c-.129.193-.225.354-.31.496l1.715 1.029c.085-.143.16-.266.259-.415l-1.664-1.11Zm-10.321-187.511c41.29 54.525 45.474 128.958 10.295 187.551l1.715 1.03c35.601-59.298 31.364-134.617-10.415-189.789l-1.595 1.208Zm-22.587-27.128c7.946 8.741 15.438 17.708 22.588 27.128l1.593-1.209c-7.188-9.469-14.717-18.482-22.702-27.265l-1.479 1.346Zm-17.339 3.008c2.9-7.045 12.138-8.625 17.345-3.001l1.467-1.359c-6.172-6.666-17.19-4.833-20.662 3.598l1.85.762Zm-21.497 54.593c6.825-18.084 13.99-36.282 21.497-54.595l-1.85-.758c-7.514 18.329-14.687 36.545-21.518 54.647l1.871.706Zm-1.802-1.004c-.028.142-.047.229-.082.335l1.898.632c.078-.235.117-.432.145-.575l-1.961-.392Zm.146-.575c-.079.235-.117.433-.146.575l1.961.392c.029-.142.047-.229.082-.335l-1.897-.632ZM629.952 75.8783c46.633 28.2277 70.34 83.2137 58.26 136.3857l1.951.443c12.272-54.022-11.814-109.871-59.175-138.5396l-1.036 1.7109Zm-42.133-22.7128c14.424 6.9277 28.507 14.5372 42.136 22.7148l1.029-1.7149c-13.681-8.2087-27.818-15.8476-42.299-22.8027l-.866 1.8028Zm-14.739 7.6838c1.143-6.8582 8.516-10.6919 14.737-7.6849l.87-1.8007c-7.433-3.5929-16.219.9942-17.58 9.1568l1.973.3288Zm-10.122 69.3747c2.843-22.631 6.255-45.8324 10.122-69.3771l-1.973-.3241c-3.871 23.566-7.287 46.7922-10.133 69.4512l1.984.25Zm-1.106.875h.114v-2h-.114v2Zm-1-1.91v.91h2v-.91h-2ZM465.485 11.4792c55.415 11.9633 95.254 61.0591 95.367 117.7118l2-.004c-.115-57.5968-40.614-107.5018-96.945-119.6628l-.422 1.955ZM395.062 1.0294c23.511 1.9308 47.024 5.4519 70.425 10.4503l.418-1.956C442.424 4.5084 418.826.9743 395.226-.9638l-.164 1.9933ZM384.06 13.708C382.604 6.8436 388.116.511 395.07 1.03l.148-1.9945c-8.295-.619-14.844 6.9312-13.114 15.0875l1.956-.415Zm87.505 391.099L384.058 13.6972l-1.952.4367 87.508 391.1091 1.951-.436Zm6.397 75.208c0-28.165-2.395-52.917-6.388-75.167l-1.969.354c3.972 22.13 6.357 46.764 6.357 74.813h2ZM372.499 585.478c58.246 0 105.463-47.217 105.463-105.463h-2c0 57.141-46.322 103.463-103.463 103.463v2ZM267.036 480.015c0 58.246 47.217 105.463 105.463 105.463v-2c-57.141 0-103.463-46.322-103.463-103.463h-2Zm44.072-190.045c-21.38 58.168-44.072 119.877-44.072 190.045h2c0-69.761 22.555-131.148 43.949-189.355l-1.877-.69Zm37.291-151.678c0 50.191-18.104 99.479-37.291 151.678l1.877.69c19.159-52.123 37.414-101.756 37.414-152.368h-2Zm0-2.048v2.048h2v-2.048h-2Zm-.452-9.371c.228 3.076.452 6.227.452 9.371h2c0-3.228-.23-6.45-.458-9.519l-1.994.148Zm-.003-.302v.228h2v-.228h-2Zm-87.19-78.0863c45.229 0 82.47 34.2033 87.196 78.1933l1.988-.213c-4.833-44.9969-42.923-79.9803-89.184-79.9803v2ZM174.57 119.705c7.763-40.506 43.319-71.2203 86.184-71.2203v-2c-43.846 0-80.209 31.4173-88.149 72.8433l1.965.377Zm-57.197 16.629c20.788 0 40.198-5.858 56.736-15.964l-1.043-1.707c-16.235 9.921-35.287 15.671-55.693 15.671v2Zm-55.2464-15.162c16.1956 9.648 35.0341 15.162 55.2464 15.162v-2c-19.8423 0-38.3284-5.411-54.2227-14.88l-1.0237 1.718Zm-5.1251 5.213c-2.0511-3.3 1.6857-7.204 5.1359-5.207l1.0021-1.731c-5.1981-3.009-11.0199 2.873-7.8365 7.994l1.6985-1.056Zm97.8095 54.604c-41.4 0-77.613-21.884-97.8078-54.601l-1.7019 1.05c20.5434 33.283 57.3867 55.551 99.5097 55.551v-2Zm27.748-3.383c-8.906 2.255-18.154 3.383-27.748 3.383v2c9.752 0 19.166-1.147 28.239-3.444l-.491-1.939Zm37.22 36.189c-15.3-8.098-27.889-20.576-36.095-35.697l-1.758.954c8.394 15.468 21.27 28.228 36.918 36.511l.935-1.768Zm-1.328.375c-11.219 18.981-22.355 38.011-33.441 57.09l1.729 1.005c11.084-19.076 22.217-38.102 33.433-57.077l-1.721-1.018Zm-33.443 57.093c-16.617 28.795-33.005 57.817-49.166 86.838l1.747.973c16.157-29.014 32.541-58.027 49.152-86.811l-1.733-1Zm-49.166 86.838c-16.162 29.023-32.096 58.273-47.8016 87.636l1.7635.943c15.7011-29.354 31.6301-58.594 47.7851-87.606l-1.747-.973Zm-47.8019 87.637c-2.2462 4.205-4.5 8.41-6.7554 12.619l1.7628.944c2.2553-4.208 4.5097-8.414 6.7567-12.621l-1.7641-.942Zm-6.7554 12.619c-12.9362 24.138-25.9246 48.373-37.7581 73.107l1.8041.863c11.8106-24.686 24.777-48.881 37.7168-73.026l-1.7628-.944Zm-37.7585 73.108c-13.0077 27.238-24.5162 55.384-31.5364 84.951l1.9459.462c6.9741-29.373 18.4173-57.375 31.3953-84.552l-1.8048-.861ZM1.0517 708.075c.5226-31.567 4.992-62.073 12.8763-91.166l-1.9304-.523C4.0708 645.636-.4226 676.307-.948 708.042l1.9997.033ZM370.116 1085.99C162.885 1084.63-2.353 915.307 1.0517 708.075l-1.9997-.033c-3.423 208.343 162.706 378.578 371.051 379.948l.013-2Zm374.058-371.673c0 206.095-167.623 373.033-374.058 371.673l-.013 2c207.547 1.37 376.071-166.47 376.071-373.673h-2Zm-14.163-101.844c11.545 31.581 14.163 66.488 14.163 101.844h2c0-35.425-2.617-70.614-14.285-102.53l-1.878.686Zm-16.518-33.134c6.769 11.643 13.188 23.821 16.515 33.128l1.884-.674c-3.393-9.491-9.893-21.802-16.67-33.459l-1.729 1.005Zm50.063-45.085c-15.758 15.733-32.182 30.716-49.794 43.779l1.191 1.607c17.719-13.143 34.219-28.198 50.016-43.97l-1.413-1.416Zm29.967-31.23a165.638 165.638 0 0 1-29.886 31.158l1.251 1.56a167.7006 167.7006 0 0 0 30.247-31.533l-1.612-1.185Zm1.797-1.938c-.574.616-1.148 1.232-1.722 1.849l1.462 1.364 1.724-1.85-1.464-1.363Zm.189 1.587.331.072.424-1.955-.332-.072-.423 1.955Z" mask="url(#a)"/></g></svg>